<mxfile host="65bd71144e">
    <diagram id="rS5jierEilmL0hbu3_fT" name="Page-1">
        <mxGraphModel dx="922" dy="570" grid="1" gridSize="10" guides="1" tooltips="1" connect="1" arrows="1" fold="1" page="1" pageScale="1" pageWidth="500" pageHeight="700" math="0" shadow="0">
            <root>
                <mxCell id="0"/>
                <mxCell id="1" parent="0"/>
                <mxCell id="3" value="" style="html=1;" parent="1" vertex="1">
                    <mxGeometry x="70" y="120" width="140" height="190" as="geometry"/>
                </mxCell>
                <mxCell id="12" value="User 1" style="shape=umlActor;verticalLabelPosition=bottom;verticalAlign=top;html=1;outlineConnect=0;" parent="1" vertex="1">
                    <mxGeometry x="210" y="585" width="30" height="60" as="geometry"/>
                </mxCell>
                <mxCell id="13" value="&lt;span style=&quot;color: rgb(31, 35, 40); font-family: -apple-system, BlinkMacSystemFont, &amp;quot;Segoe UI&amp;quot;, &amp;quot;Noto Sans&amp;quot;, Helvetica, Arial, sans-serif, &amp;quot;Apple Color Emoji&amp;quot;, &amp;quot;Segoe UI Emoji&amp;quot;; font-size: 16px; text-align: start; background-color: rgb(255, 255, 255);&quot;&gt;&lt;br&gt;&lt;/span&gt;" style="html=1;" parent="1" vertex="1">
                    <mxGeometry x="80" y="385" width="550" height="150" as="geometry"/>
                </mxCell>
                <mxCell id="14" value="Messaging Grid" style="html=1;" parent="1" vertex="1">
                    <mxGeometry x="290" y="445" width="110" height="50" as="geometry"/>
                </mxCell>
                <mxCell id="15" value="Process Unit 1" style="text;align=center;fontStyle=1;verticalAlign=middle;spacingLeft=3;spacingRight=3;strokeColor=none;rotatable=0;points=[[0,0.5],[1,0.5]];portConstraint=eastwest;" parent="1" vertex="1">
                    <mxGeometry x="100" y="140" width="80" height="26" as="geometry"/>
                </mxCell>
                <mxCell id="16" value="Virtualized Middleware" style="text;align=center;fontStyle=1;verticalAlign=middle;spacingLeft=3;spacingRight=3;strokeColor=none;rotatable=0;points=[[0,0.5],[1,0.5]];portConstraint=eastwest;" parent="1" vertex="1">
                    <mxGeometry x="310" y="395" width="80" height="26" as="geometry"/>
                </mxCell>
                <mxCell id="20" value="Data Grid" style="html=1;" parent="1" vertex="1">
                    <mxGeometry x="110" y="445" width="120" height="50" as="geometry"/>
                </mxCell>
                <mxCell id="23" value="User 2" style="shape=umlActor;verticalLabelPosition=bottom;verticalAlign=top;html=1;outlineConnect=0;" parent="1" vertex="1">
                    <mxGeometry x="440" y="585" width="30" height="60" as="geometry"/>
                </mxCell>
                <mxCell id="24" value="Deployment Manager" style="html=1;" parent="1" vertex="1">
                    <mxGeometry x="480" y="445" width="120" height="50" as="geometry"/>
                </mxCell>
                <mxCell id="49" value="" style="endArrow=classic;html=1;rounded=0;exitX=0.5;exitY=0;exitDx=0;exitDy=0;exitPerimeter=0;entryX=0.5;entryY=1;entryDx=0;entryDy=0;" parent="1" source="12" target="14" edge="1">
                    <mxGeometry width="50" height="50" relative="1" as="geometry">
                        <mxPoint x="390" y="405" as="sourcePoint"/>
                        <mxPoint x="440" y="355" as="targetPoint"/>
                    </mxGeometry>
                </mxCell>
                <mxCell id="50" value="" style="endArrow=classic;html=1;rounded=0;exitX=0.5;exitY=0;exitDx=0;exitDy=0;exitPerimeter=0;entryX=0.5;entryY=1;entryDx=0;entryDy=0;" parent="1" source="23" target="14" edge="1">
                    <mxGeometry width="50" height="50" relative="1" as="geometry">
                        <mxPoint x="235" y="595" as="sourcePoint"/>
                        <mxPoint x="355" y="505" as="targetPoint"/>
                    </mxGeometry>
                </mxCell>
                <mxCell id="57" value="" style="html=1;" vertex="1" parent="1">
                    <mxGeometry x="280" y="120" width="140" height="190" as="geometry"/>
                </mxCell>
                <mxCell id="58" value="Process Unit 2" style="text;align=center;fontStyle=1;verticalAlign=middle;spacingLeft=3;spacingRight=3;strokeColor=none;rotatable=0;points=[[0,0.5],[1,0.5]];portConstraint=eastwest;" vertex="1" parent="1">
                    <mxGeometry x="310" y="140" width="80" height="26" as="geometry"/>
                </mxCell>
                <mxCell id="59" value="" style="html=1;" vertex="1" parent="1">
                    <mxGeometry x="500" y="120" width="140" height="190" as="geometry"/>
                </mxCell>
                <mxCell id="60" value="Process Unit 3" style="text;align=center;fontStyle=1;verticalAlign=middle;spacingLeft=3;spacingRight=3;strokeColor=none;rotatable=0;points=[[0,0.5],[1,0.5]];portConstraint=eastwest;" vertex="1" parent="1">
                    <mxGeometry x="530" y="140" width="80" height="26" as="geometry"/>
                </mxCell>
                <mxCell id="61" value="" style="endArrow=classic;html=1;rounded=0;exitX=0.5;exitY=0;exitDx=0;exitDy=0;exitPerimeter=0;entryX=0.129;entryY=1.011;entryDx=0;entryDy=0;entryPerimeter=0;" edge="1" parent="1" target="3">
                    <mxGeometry width="50" height="50" relative="1" as="geometry">
                        <mxPoint x="140" y="445" as="sourcePoint"/>
                        <mxPoint x="260" y="355" as="targetPoint"/>
                    </mxGeometry>
                </mxCell>
                <mxCell id="62" value="" style="endArrow=classic;html=1;rounded=0;exitX=0.5;exitY=0;exitDx=0;exitDy=0;exitPerimeter=0;entryX=0.171;entryY=1.005;entryDx=0;entryDy=0;entryPerimeter=0;" edge="1" parent="1" target="57">
                    <mxGeometry width="50" height="50" relative="1" as="geometry">
                        <mxPoint x="210" y="445" as="sourcePoint"/>
                        <mxPoint x="330" y="355" as="targetPoint"/>
                    </mxGeometry>
                </mxCell>
                <mxCell id="63" value="" style="endArrow=classic;html=1;rounded=0;exitX=0.25;exitY=0;exitDx=0;exitDy=0;entryX=0.5;entryY=1;entryDx=0;entryDy=0;" edge="1" parent="1" source="14" target="3">
                    <mxGeometry width="50" height="50" relative="1" as="geometry">
                        <mxPoint x="150" y="455" as="sourcePoint"/>
                        <mxPoint x="98.05999999999995" y="322.0899999999999" as="targetPoint"/>
                    </mxGeometry>
                </mxCell>
                <mxCell id="64" value="" style="endArrow=classic;html=1;rounded=0;exitX=0.5;exitY=0;exitDx=0;exitDy=0;exitPerimeter=0;entryX=0.943;entryY=0.995;entryDx=0;entryDy=0;entryPerimeter=0;" edge="1" parent="1" target="57">
                    <mxGeometry width="50" height="50" relative="1" as="geometry">
                        <mxPoint x="386.06" y="445" as="sourcePoint"/>
                        <mxPoint x="480.00000000000006" y="310.95000000000005" as="targetPoint"/>
                    </mxGeometry>
                </mxCell>
                <mxCell id="65" value="" style="endArrow=classic;html=1;rounded=0;entryX=0.5;entryY=1;entryDx=0;entryDy=0;" edge="1" parent="1" source="24" target="59">
                    <mxGeometry width="50" height="50" relative="1" as="geometry">
                        <mxPoint x="465" y="595" as="sourcePoint"/>
                        <mxPoint x="355" y="505" as="targetPoint"/>
                    </mxGeometry>
                </mxCell>
            </root>
        </mxGraphModel>
    </diagram>
</mxfile>